<?xml version="1.0" standalone="no"?>
<!DOCTYPE svg PUBLIC "-//W3C//DTD SVG 20010904//EN"
 "http://www.w3.org/TR/2001/REC-SVG-20010904/DTD/svg10.dtd">
<svg version="1.0" xmlns="http://www.w3.org/2000/svg"
 width="260.000000pt" height="260.000000pt" viewBox="0 0 260.000000 260.000000"
 preserveAspectRatio="xMidYMid meet">
<metadata>
Created by potrace 1.11, written by Peter Selinger 2001-2013
</metadata>
<g transform="translate(0.000000,260.000000) scale(0.100000,-0.100000)"
fill="#000000" stroke="none">
<path d="M1150 2411 c-44 -14 -84 -38 -114 -70 l-30 -31 -358 0 -358 0 0 -307
0 -306 -41 -35 c-54 -47 -79 -101 -79 -178 0 -74 34 -150 85 -189 l35 -26 2
-501 3 -500 116 1 116 2 28 -37 c84 -109 286 -110 370 0 l27 36 694 0 694 0 0
1020 0 1020 -461 0 -461 0 -49 44 c-64 58 -146 79 -219 57z m105 -135 c36 -15
65 -59 65 -99 0 -13 -10 -39 -23 -58 -49 -74 -157 -58 -186 26 -12 36 -12 45
3 77 16 34 63 67 94 68 7 0 28 -6 47 -14z m-285 -123 c0 -35 34 -110 63 -141
12 -13 43 -35 70 -48 l47 -24 0 -119 0 -118 -62 -23 c-45 -16 -76 -37 -116
-76 l-53 -54 -140 0 -139 0 -10 25 c-25 66 -102 130 -173 144 l-32 7 -3 227
-2 227 275 0 275 0 0 -27z m1240 -865 l0 -893 -612 2 -613 3 -7 35 c-4 20 -14
48 -22 63 -20 37 -85 99 -118 111 l-28 11 0 260 0 260 73 0 c68 0 75 -2 101
-29 37 -39 134 -81 200 -88 78 -8 179 25 238 77 l46 40 111 0 111 0 0 -98 0
-98 -40 -18 c-50 -22 -113 -93 -128 -144 -53 -176 101 -351 274 -312 64 15 95
32 137 79 103 115 73 294 -63 369 l-50 27 0 163 0 162 -137 0 -138 0 0 93 c0
81 -3 99 -29 151 -21 43 -29 73 -29 115 l0 56 101 3 c100 3 100 3 106 -23 9
-36 72 -102 120 -128 56 -29 156 -29 211 0 51 27 100 78 119 125 20 46 21 138
2 182 -19 47 -73 104 -120 129 -57 29 -155 30 -212 0 -48 -26 -111 -92 -120
-128 l-6 -25 -169 0 -169 0 0 -70 0 -70 -27 6 c-16 4 -31 9 -35 11 -5 2 -8 60
-8 128 0 119 1 123 23 129 63 16 147 126 147 194 l0 32 380 0 380 0 0 -892z
m-218 543 c28 -25 33 -36 33 -76 0 -40 -5 -51 -33 -76 -24 -22 -42 -29 -72
-29 -30 0 -48 7 -72 29 -28 25 -33 36 -33 76 0 40 5 51 33 76 24 22 42 29 72
29 30 0 48 -7 72 -29z m-1533 -255 c58 -30 69 -119 22 -167 -65 -65 -181 -21
-181 68 1 90 80 139 159 99z m873 -32 c51 -35 98 -119 98 -175 0 -53 -26 -119
-62 -156 -70 -72 -199 -84 -281 -27 -91 64 -120 191 -64 287 46 77 106 108
204 104 50 -2 71 -9 105 -33z m-462 -176 c0 -29 3 -63 6 -75 6 -23 5 -23 -100
-23 l-106 0 0 -325 0 -324 -35 -16 c-19 -10 -52 -36 -74 -60 -34 -37 -45 -61
-66 -140 -1 -6 -18 -10 -36 -9 l-34 1 -3 421 c-2 397 -1 422 15 422 33 0 118
47 149 81 16 20 36 49 43 67 l13 32 114 0 114 0 0 -52z m950 -573 c23 -14 42
-69 36 -103 -11 -69 -82 -109 -147 -82 -41 17 -59 47 -59 96 0 87 93 136 170
89z m-1008 -334 c28 -25 33 -36 33 -76 0 -40 -5 -51 -33 -76 -56 -50 -133 -36
-168 33 -53 102 81 197 168 119z"/>
</g>
</svg>
